{"title":"24 S09E09 SUB-ESP Subtitulado 1080p-McFly-H264.MP4","uid":10426568,"size":896874853,"categoryP":"video","categoryS":"hd___tv_shows","magnet":"?xt=urn:btih:45ac9f61e8525b20a1f5a76faad525384a0799ec&amp;dn=24+S09E09+SUB-ESP+Subtitulado+1080p-McFly-H264.MP4&amp;tr=udp%3A%2F%2Ftracker.openbittorrent.com%3A80&amp;tr=udp%3A%2F%2Fopen.demonii.com%3A1337&amp;tr=udp%3A%2F%2Ftracker.coppersurfer.tk%3A6969&amp;tr=udp%3A%2F%2Fexodus.desync.com%3A6969","seeders":2,"leechers":0,"uploader":"gunsnik","files":1,"time":1403712624,"description":"General\nUnique ID                                : 219246745238853900650331742789092681326 (0xA4F1631EA774C6018BE05F823012A66E)\nComplete name                            : D:BAJADOS2424.S09E09.1080p.h264-McFLY.mkv\nFormat                                   : Matroska\nFormat version                           : Version 4 / Version 2\nFile size                                : 855 MiB\nDuration                                 : 42mn 35s\nOverall bit rate                         : 2 807 Kbps\nEncoded date                             : UTC 2014-06-25 03:40:16\nWriting application                      : mkvmerge v6.8.0 ('Theme for Great Cities') 64bit built on Mar  2 2014 21:34:26\nWriting library                          : libebml v1.3.0 + libmatroska v1.4.1\n\nVideo\nID                                       : 1\nFormat                                   : AVC\nFormat/Info                              : Advanced Video Codec\nFormat profile                           : &lt;a class=&quot;__cf_email__&quot; href=&quot;/cdn-cgi/l/email-protection&quot; data-cfemail=&quot;a5edccc2cde5e9918b95&quot;&gt;[email&amp;#160;protected]&lt;/a&gt;&lt;script cf-hash='f9e31' type=&quot;text/javascript&quot;&gt;\n/* &lt;![CDATA[ */!function(){try{var t=&quot;currentScript&quot;in document?document.currentScript:function(){for(var t=document.getElementsByTagName(&quot;script&quot;),e=t.length;e--;)if(t[e].getAttribute(&quot;cf-hash&quot;))return t[e]}();if(t&amp;&amp;t.previousSibling){var e,r,n,i,c=t.previousSibling,a=c.getAttribute(&quot;data-cfemail&quot;);if(a){for(e=&quot;&quot;,r=parseInt(a.substr(0,2),16),n=2;a.length-n;n+=2)i=parseInt(a.substr(n,2),16)^r,e+=String.fromCharCode(i);e=document.createTextNode(e),c.parentNode.replaceChild(e,c)}}}catch(u){}}();/* ]]&gt; */&lt;/script&gt;\nFormat settings, CABAC                   : Yes\nFormat settings, ReFrames                : 4 frames\nFormat settings, GOP                     : M=8, N=32\nCodec ID                                 : V_MPEG4/ISO/AVC\nDuration                                 : 42mn 35s\nBit rate                                 : 2 527 Kbps\nWidth                                    : 1 920 pixels\nHeight                                   : 1 080 pixels\nDisplay aspect ratio                     : 16:9\nFrame rate                               : 30.000 fps\nOriginal frame rate                      : 29.970 fps\nStandard                                 : Component\nColor space                              : YUV\nChroma subsampling                       : 4:2:0\nBit depth                                : 8 bits\nScan type                                : MBAFF\nBits/(Pixel*Frame)                       : 0.041\nStream size                              : 770 MiB (90%)\nDefault                                  : Yes\nForced                                   : No\nColor primaries                          : BT.709-5, BT.1361, IEC 61966-2-4, SMPTE RP177\nTransfer characteristics                 : BT.709-5, BT.1361\nMatrix coefficients                      : BT.709-5, BT.1361, IEC 61966-2-4 709, SMPTE RP177\n\nAudio\nID                                       : 2\nFormat                                   : MPEG Audio\nFormat version                           : Version 1\nFormat profile                           : Layer 3\nCodec ID                                 : A_MPEG/L3\nCodec ID/Hint                            : MP3\nDuration                                 : 42mn 35s\nBit rate mode                            : Constant\nBit rate                                 : 224 Kbps\nChannel(s)                               : 2 channels\nSampling rate                            : 48.0 KHz\nCompression mode                         : Lossy\nDelay relative to video                  : 13ms\nStream size                              : 68.2 MiB (8%)\nWriting library                          : LAME3.99.5\nDefault                                  : Yes\nForced                                   : No\n\n\nCapturas: &lt;a href=&quot;\nhttp://i39.servimg.com/u/f39/11/56/14/72/24_s0926.jpg&quot; rel=&quot;nofollow&quot; target=&quot;_NEW&quot;&gt;\nhttp://i39.servimg.com/u/f39/11/56/14/72/24_s0926.jpg&lt;/a&gt; &lt;a href=&quot;\nhttp://i39.servimg.com/u/f39/11/56/14/72/24_s0927.jpg&quot; rel=&quot;nofollow&quot; target=&quot;_NEW&quot;&gt;\nhttp://i39.servimg.com/u/f39/11/56/14/72/24_s0927.jpg&lt;/a&gt; &lt;a href=&quot;\nhttp://i39.servimg.com/u/f39/11/56/14/72/24_s0928.jpg&quot; rel=&quot;nofollow&quot; target=&quot;_NEW&quot;&gt;\nhttp://i39.servimg.com/u/f39/11/56/14/72/24_s0928.jpg&lt;/a&gt; &lt;a href=&quot;\nhttp://i39.servimg.com/u/f39/11/56/14/72/24_s0929.jpg&quot; rel=&quot;nofollow&quot; target=&quot;_NEW&quot;&gt;\nhttp://i39.servimg.com/u/f39/11/56/14/72/24_s0929.jpg&lt;/a&gt;","torrent":{"xt":"urn:btih:45ac9f61e8525b20a1f5a76faad525384a0799ec","amp;dn":"24+S09E09+SUB-ESP+Subtitulado+1080p-McFly-H264.MP4","amp;tr":["udp%3A%2F%2Ftracker.openbittorrent.com%3A80","udp%3A%2F%2Fopen.demonii.com%3A1337","udp%3A%2F%2Ftracker.coppersurfer.tk%3A6969","udp%3A%2F%2Fexodus.desync.com%3A6969"],"infoHash":"45ac9f61e8525b20a1f5a76faad525384a0799ec","infoHashBuffer":{"type":"Buffer","data":[69,172,159,97,232,82,91,32,161,245,167,111,170,213,37,56,74,7,153,236]},"announce":[],"urlList":[]}}